<svg width="25" height="30" viewBox="0 0 25 30" fill="none" xmlns="http://www.w3.org/2000/svg">
<path d="M13.4352 25.567V1.22132C13.4352 0.897403 13.3066 0.586757 13.0775 0.357715C12.8485 0.128674 12.5378 0 12.2139 0C11.89 0 11.5794 0.128674 11.3503 0.357715C11.1213 0.586757 10.9926 0.897403 10.9926 1.22132V25.567L2.08677 16.1043C1.97693 15.9843 1.84333 15.8885 1.69446 15.823C1.5456 15.7575 1.38473 15.7236 1.22208 15.7236C1.05943 15.7236 0.898562 15.7575 0.749699 15.823C0.600835 15.8885 0.467234 15.9843 0.357389 16.1043C0.127545 16.3544 0 16.6818 0 17.0215C0 17.3612 0.127545 17.6885 0.357389 17.9387L11.3492 29.6194C11.4591 29.7393 11.5927 29.8351 11.7415 29.9006C11.8904 29.9662 12.0513 30 12.2139 30C12.3766 30 12.5374 29.9662 12.6863 29.9006C12.8352 29.8351 12.9688 29.7393 13.0786 29.6194L24.0705 17.9387C24.2996 17.6887 24.4267 17.3618 24.4267 17.0227C24.4267 16.6836 24.2996 16.3567 24.0705 16.1067C23.9606 15.9868 23.827 15.891 23.6782 15.8254C23.5293 15.7599 23.3684 15.7261 23.2058 15.7261C23.0431 15.7261 22.8823 15.7599 22.7334 15.8254C22.5845 15.891 22.4509 15.9868 22.3411 16.1067L13.4352 25.5646V25.567Z" fill="white"/>
</svg>
